STARTFONT 2.1
FONT -Monotype-Century Gothic-Bold-R-Normal--25-180-100-100-P-117-iso8859-9
SIZE 18 100 100
FONTBOUNDINGBOX 35 31 -3 -6

STARTPROPERTIES 24
FOUNDRY "Monotype"
FAMILY_NAME "Century Gothic"
WEIGHT_NAME "Bold"
SLANT "R"
SETWIDTH_NAME "Normal"
ADD_STYLE_NAME ""
PIXEL_SIZE 25
POINT_SIZE 180
RESOLUTION_X 100
RESOLUTION_Y 100
SPACING "P"
AVERAGE_WIDTH 117
CHARSET_REGISTRY "iso8859"
CHARSET_ENCODING "9"
FACE_NAME "Century Gothic Bold ISO Latin5"
_DEC_DEVICE_FONTNAMES "PS=centurygothic-b-lat5"
COPYRIGHT "Copyright (c) 1993 Monotype Typography Ltd."
CAP_HEIGHT 22
X_HEIGHT 16
WEIGHT 10
QUAD_WIDTH 16
DEFAULT_CHAR 160
FONT_DESCENT 6
FONT_ASCENT 25
ENDPROPERTIES

CHARS 191

STARTCHAR space
ENCODING 32
SWIDTH 280 0
DWIDTH 7 0
BBX 0 0 0 0
BITMAP
ENDCHAR

STARTCHAR exclam
ENCODING 33
SWIDTH 280 0
DWIDTH 7 0
BBX 4 18 2 0
BITMAP
E0
E0
E0
E0
E0
E0
E0
E0
E0
E0
E0
E0
E0
00
60
F0
F0
70
ENDCHAR

STARTCHAR quotedbl
ENCODING 34
SWIDTH 360 0
DWIDTH 9 0
BBX 9 6 0 12
BITMAP
F780
7380
6300
6300
6300
6300
ENDCHAR

STARTCHAR numbersign
ENCODING 35
SWIDTH 600 0
DWIDTH 15 0
BBX 13 18 1 0
BITMAP
0E70
0E60
0C60
0C60
0CE0
7FF8
7FF8
1CC0
18C0
18C0
FFF8
DFF8
39C0
39C0
3980
3180
3180
3380
ENDCHAR

STARTCHAR dollar
ENCODING 36
SWIDTH 560 0
DWIDTH 14 0
BBX 13 22 1 -3
BITMAP
0300
1FC0
3FF0
7FF0
7860
7020
7800
3E00
3F80
0FE0
03F0
00F8
0078
0038
2038
7878
FFF0
3FF0
1FC0
0300
0300
0300
ENDCHAR

STARTCHAR percent
ENCODING 37
SWIDTH 860 0
DWIDTH 22 0
BBX 20 19 1 -1
BITMAP
3E03C0
7FFF80
E7FF00
C30600
C30E00
E70C00
7E1800
3C3000
007000
006000
00C3C0
0187E0
038E70
030C30
060C30
0C0E70
1C07E0
1803C0
300000
ENDCHAR

STARTCHAR ampersand
ENCODING 38
SWIDTH 680 0
DWIDTH 17 0
BBX 15 18 1 0
BITMAP
0F00
1F80
3FC0
39C0
39C0
3BC0
3F80
1F80
1E00
3F00
7F88
F398
E3FC
E0F8
F3F0
FFF8
7FDC
3E1E
ENDCHAR

STARTCHAR quoteright
ENCODING 39
SWIDTH 280 0
DWIDTH 7 0
BBX 3 7 2 11
BITMAP
E0
E0
E0
60
60
C0
40
ENDCHAR

STARTCHAR parenleft
ENCODING 40
SWIDTH 380 0
DWIDTH 9 0
BBX 8 24 1 -5
BITMAP
1F
3C
3C
78
78
70
F0
F0
F0
E0
E0
E0
E0
E0
E0
F0
F0
F0
70
78
38
3C
1E
1F
ENDCHAR

STARTCHAR parenright
ENCODING 41
SWIDTH 380 0
DWIDTH 9 0
BBX 7 24 1 -5
BITMAP
F0
78
78
3C
3C
1C
1E
1E
0E
0E
0E
0E
0E
0E
0E
0E
1E
1E
1C
3C
3C
78
F8
F0
ENDCHAR

STARTCHAR asterisk
ENCODING 42
SWIDTH 440 0
DWIDTH 11 0
BBX 9 10 1 8
BITMAP
1C00
5C80
ED80
FB80
1C00
7F00
EB80
4900
5D00
1C00
ENDCHAR

STARTCHAR plus
ENCODING 43
SWIDTH 600 0
DWIDTH 15 0
BBX 13 13 1 2
BITMAP
0700
0700
0700
0700
0700
FFF8
FFF8
FFF8
0700
0700
0700
0700
0700
ENDCHAR

STARTCHAR comma
ENCODING 44
SWIDTH 280 0
DWIDTH 7 0
BBX 5 6 1 -3
BITMAP
38
70
70
60
E0
40
ENDCHAR

STARTCHAR minus
ENCODING 45
SWIDTH 600 0
DWIDTH 15 0
BBX 13 3 1 7
BITMAP
FFF8
FFF8
FFF8
ENDCHAR

STARTCHAR period
ENCODING 46
SWIDTH 280 0
DWIDTH 7 0
BBX 4 4 1 0
BITMAP
60
F0
F0
60
ENDCHAR

STARTCHAR slash
ENCODING 47
SWIDTH 460 0
DWIDTH 11 0
BBX 10 22 1 -3
BITMAP
00C0
0180
0180
0380
0300
0300
0700
0600
0E00
0C00
0C00
1C00
1800
1800
3800
3000
7000
6000
6000
E000
C000
C000
ENDCHAR

STARTCHAR zero
ENCODING 48
SWIDTH 560 0
DWIDTH 14 0
BBX 12 18 1 0
BITMAP
1F80
3FC0
7FE0
79E0
F0F0
F0F0
E070
E070
E070
E070
E070
E070
F0F0
F0F0
79E0
7FE0
3FC0
1F80
ENDCHAR

STARTCHAR one
ENCODING 49
SWIDTH 560 0
DWIDTH 14 0
BBX 7 18 2 0
BITMAP
3E
7E
FE
0E
0E
0E
0E
0E
0E
0E
0E
0E
0E
0E
0E
0E
0E
0E
ENDCHAR

STARTCHAR two
ENCODING 50
SWIDTH 560 0
DWIDTH 14 0
BBX 12 18 1 0
BITMAP
0F80
3FE0
7FE0
78F0
7070
F070
0070
00F0
00E0
01E0
03C0
0780
0F00
1E00
3C00
7FF0
FFF0
FFF0
ENDCHAR

STARTCHAR three
ENCODING 51
SWIDTH 560 0
DWIDTH 14 0
BBX 12 18 1 0
BITMAP
0F80
3FE0
3FE0
78F0
70F0
00F0
03E0
0780
07C0
07F0
00F0
0070
E070
F070
F0F0
7FE0
3FC0
1F80
ENDCHAR

STARTCHAR four
ENCODING 52
SWIDTH 560 0
DWIDTH 14 0
BBX 13 18 1 0
BITMAP
00E0
01E0
03E0
07E0
07E0
0F60
1EE0
3CE0
3CE0
78E0
F0E0
FFF8
FFF8
FFF8
00E0
00E0
00E0
00E0
ENDCHAR

STARTCHAR five
ENCODING 53
SWIDTH 560 0
DWIDTH 14 0
BBX 12 18 1 0
BITMAP
1FF0
1FF0
1FF0
1C00
3C00
3800
3F80
3FE0
3FE0
78F0
00F0
0070
0070
F0F0
F9F0
7FE0
3FC0
1F80
ENDCHAR

STARTCHAR six
ENCODING 54
SWIDTH 560 0
DWIDTH 14 0
BBX 11 18 1 0
BITMAP
0200
0780
0700
0F00
0E00
1E00
3C00
3E00
7F80
7FC0
FBE0
F1E0
E0E0
E0E0
F1E0
7FC0
3FC0
1F00
ENDCHAR

STARTCHAR seven
ENCODING 55
SWIDTH 560 0
DWIDTH 14 0
BBX 11 18 2 0
BITMAP
FFE0
FFE0
FFE0
01C0
03C0
0380
0780
0700
0F00
0E00
1E00
1C00
3C00
3800
7800
F000
7000
1000
ENDCHAR

STARTCHAR eight
ENCODING 56
SWIDTH 560 0
DWIDTH 14 0
BBX 12 18 1 0
BITMAP
1F80
3FC0
7FE0
79E0
70E0
70E0
79E0
3FC0
3FC0
7FE0
F0F0
E070
E070
E070
F0F0
7FE0
7FE0
1F80
ENDCHAR

STARTCHAR nine
ENCODING 57
SWIDTH 560 0
DWIDTH 14 0
BBX 11 18 2 0
BITMAP
1F00
7FC0
7FC0
F1E0
E0E0
E0E0
F1E0
FBE0
7FC0
3FC0
0F80
0780
0F00
0E00
1E00
1C00
3C00
0400
ENDCHAR

STARTCHAR colon
ENCODING 58
SWIDTH 280 0
DWIDTH 7 0
BBX 4 14 1 0
BITMAP
60
F0
F0
60
00
00
00
00
00
00
60
F0
F0
60
ENDCHAR

STARTCHAR semicolon
ENCODING 59
SWIDTH 280 0
DWIDTH 7 0
BBX 5 17 1 -3
BITMAP
30
78
78
30
00
00
00
00
00
00
10
38
38
70
60
E0
20
ENDCHAR

STARTCHAR less
ENCODING 60
SWIDTH 600 0
DWIDTH 15 0
BBX 13 16 1 1
BITMAP
0008
0018
0078
01F8
07E0
1F80
7E00
F000
F800
7E00
1F80
07E0
01F8
0078
0018
0008
ENDCHAR

STARTCHAR equal
ENCODING 61
SWIDTH 600 0
DWIDTH 15 0
BBX 13 8 1 5
BITMAP
FFF8
FFF8
FFF8
0000
0000
FFF8
FFF8
FFF8
ENDCHAR

STARTCHAR greater
ENCODING 62
SWIDTH 600 0
DWIDTH 15 0
BBX 13 16 1 1
BITMAP
8000
C000
F000
FC00
3F00
0FC0
03F0
0078
00F8
03F0
0FC0
3F00
FC00
F000
C000
8000
ENDCHAR

STARTCHAR question
ENCODING 63
SWIDTH 560 0
DWIDTH 14 0
BBX 12 19 1 0
BITMAP
0F80
3FE0
7FF0
78F0
F070
0070
00F0
01E0
03E0
0780
0780
0F00
0F00
0000
0000
0F00
0F00
0F00
0700
ENDCHAR

STARTCHAR at
ENCODING 64
SWIDTH 740 0
DWIDTH 18 0
BBX 19 19 0 0
BITMAP
01F800
0FFE00
1C0780
300180
60E0C0
63FE60
47FE60
CF1E60
CE0E60
CE0C60
CE1C40
CF1CC0
67FD80
67FF00
319C00
3801C0
1E0700
07FE00
01F800
ENDCHAR

STARTCHAR A
ENCODING 65
SWIDTH 740 0
DWIDTH 18 0
BBX 17 18 1 0
BITMAP
03C000
03E000
03E000
07E000
07F000
0F7000
0F7800
0E7800
1E3800
1C3C00
3C1C00
3FFC00
3FFE00
7FFE00
700F00
F00F00
F00700
E00780
ENDCHAR

STARTCHAR B
ENCODING 66
SWIDTH 580 0
DWIDTH 15 0
BBX 11 18 2 0
BITMAP
FF00
FF80
FFC0
E3C0
E1C0
E1C0
E3C0
FF00
FF80
FFC0
E3E0
E0E0
E0E0
E0E0
E3E0
FFE0
FFC0
FF00
ENDCHAR

STARTCHAR C
ENCODING 67
SWIDTH 780 0
DWIDTH 20 0
BBX 17 18 1 0
BITMAP
03F800
0FFE00
1FFF00
3E0F80
780300
700100
F00000
E00000
E00000
E00000
E00000
F00000
F00100
780700
3E0F80
3FFF00
0FFE00
03F800
ENDCHAR

STARTCHAR D
ENCODING 68
SWIDTH 700 0
DWIDTH 17 0
BBX 14 18 2 0
BITMAP
FF80
FFE0
FFF0
E1F0
E078
E078
E03C
E03C
E03C
E03C
E03C
E03C
E038
E078
E1F0
FFF0
FFE0
FF80
ENDCHAR

STARTCHAR E
ENCODING 69
SWIDTH 520 0
DWIDTH 13 0
BBX 10 18 2 0
BITMAP
FFC0
FFC0
FFC0
E000
E000
E000
E000
FFC0
FFC0
FFC0
E000
E000
E000
E000
E000
FFC0
FFC0
FFC0
ENDCHAR

STARTCHAR F
ENCODING 70
SWIDTH 480 0
DWIDTH 12 0
BBX 9 18 2 0
BITMAP
FF80
FF80
FF80
E000
E000
E000
E000
FF80
FF80
FF80
E000
E000
E000
E000
E000
E000
E000
E000
ENDCHAR

STARTCHAR G
ENCODING 71
SWIDTH 840 0
DWIDTH 21 0
BBX 19 18 1 0
BITMAP
03FC00
0FFF00
1FFFC0
3E0F80
7C0300
F80000
F00000
F00000
E00000
E03FE0
F03FE0
F03FE0
F801C0
7C03C0
3E0F80
1FFF00
0FFE00
03F800
ENDCHAR

STARTCHAR H
ENCODING 72
SWIDTH 680 0
DWIDTH 17 0
BBX 12 18 3 0
BITMAP
E070
E070
E070
E070
E070
E070
E070
FFF0
FFF0
FFF0
E070
E070
E070
E070
E070
E070
E070
E070
ENDCHAR

STARTCHAR I
ENCODING 73
SWIDTH 280 0
DWIDTH 7 0
BBX 3 18 2 0
BITMAP
E0
E0
E0
E0
E0
E0
E0
E0
E0
E0
E0
E0
E0
E0
E0
E0
E0
E0
ENDCHAR

STARTCHAR J
ENCODING 74
SWIDTH 480 0
DWIDTH 12 0
BBX 9 18 1 0
BITMAP
0380
0380
0380
0380
0380
0380
0380
0380
0380
0380
0380
0380
0380
2380
7780
FF80
7F00
3E00
ENDCHAR

STARTCHAR K
ENCODING 75
SWIDTH 620 0
DWIDTH 16 0
BBX 13 18 2 0
BITMAP
E0F0
E1E0
E3C0
E7C0
E780
EF00
FE00
FC00
FC00
FE00
EF00
EF00
E780
E3C0
E3E0
E1E0
E0F0
E078
ENDCHAR

STARTCHAR L
ENCODING 76
SWIDTH 440 0
DWIDTH 11 0
BBX 8 18 2 0
BITMAP
E0
E0
E0
E0
E0
E0
E0
E0
E0
E0
E0
E0
E0
E0
E0
FF
FF
FF
ENDCHAR

STARTCHAR M
ENCODING 77
SWIDTH 900 0
DWIDTH 22 0
BBX 21 18 1 0
BITMAP
1C03C0
1E03C0
3E03C0
3E07C0
3F07E0
3F07E0
3F0FE0
7B8EE0
7B8EE0
7B9EE0
73DCF0
71DCF0
71FC70
F1F870
F0F870
E0F870
E0F078
E07078
ENDCHAR

STARTCHAR N
ENCODING 78
SWIDTH 740 0
DWIDTH 18 0
BBX 14 18 2 0
BITMAP
E01C
F01C
F81C
F81C
FC1C
FE1C
EE1C
EF1C
E79C
E79C
E3DC
E1EC
E1FC
E0FC
E07C
E07C
E03C
E01C
ENDCHAR

STARTCHAR O
ENCODING 79
SWIDTH 840 0
DWIDTH 21 0
BBX 19 18 1 0
BITMAP
03F800
0FFE00
1FFF00
3E0F80
7C03C0
7801E0
7001E0
F000E0
F000E0
F000E0
F000E0
7001E0
7801E0
3C03C0
3F0F80
1FFF80
0FFE00
03F800
ENDCHAR

STARTCHAR P
ENCODING 80
SWIDTH 560 0
DWIDTH 14 0
BBX 10 18 2 0
BITMAP
FF00
FF80
FFC0
E3C0
E1C0
E1C0
E3C0
FFC0
FF80
FE00
E000
E000
E000
E000
E000
E000
E000
E000
ENDCHAR

STARTCHAR Q
ENCODING 81
SWIDTH 840 0
DWIDTH 21 0
BBX 20 19 1 -1
BITMAP
03F800
0FFE00
1FFF00
3E0F80
7C03C0
7801E0
7001E0
F000E0
F000E0
F000E0
F078E0
703DE0
781FE0
3C1FC0
3F0F80
1FFF80
0FFFC0
03F9E0
0001F0
ENDCHAR

STARTCHAR R
ENCODING 82
SWIDTH 580 0
DWIDTH 15 0
BBX 11 18 3 0
BITMAP
FF00
FF80
FFC0
E3C0
E1C0
E1C0
E3C0
FFC0
FF80
FF00
EE00
EF00
E700
E780
E380
E3C0
E1C0
E1E0
ENDCHAR

STARTCHAR S
ENCODING 83
SWIDTH 520 0
DWIDTH 13 0
BBX 11 18 1 0
BITMAP
1F00
3FC0
7FE0
71C0
7080
7800
3C00
3E00
1F80
0FC0
03C0
01E0
00E0
60E0
F1E0
7FE0
3FC0
1F80
ENDCHAR

STARTCHAR T
ENCODING 84
SWIDTH 420 0
DWIDTH 10 0
BBX 10 18 1 0
BITMAP
FFC0
FFC0
FFC0
1C00
1C00
1C00
1C00
1C00
1C00
1C00
1C00
1C00
1C00
1C00
1C00
1C00
1C00
1C00
ENDCHAR

STARTCHAR U
ENCODING 85
SWIDTH 640 0
DWIDTH 16 0
BBX 12 18 2 0
BITMAP
E070
E070
E070
E070
E070
E070
E070
E070
E070
E070
E070
E070
E070
F0F0
F9F0
7FE0
3FE0
1F80
ENDCHAR

STARTCHAR V
ENCODING 86
SWIDTH 700 0
DWIDTH 17 0
BBX 16 18 1 0
BITMAP
E00F
F00E
701E
701E
781C
383C
383C
3C38
1C78
1E70
1EF0
0EF0
0F60
07E0
07E0
07C0
03C0
0380
ENDCHAR

STARTCHAR W
ENCODING 87
SWIDTH 900 0
DWIDTH 22 0
BBX 21 18 1 0
BITMAP
E07078
E0F078
F0F070
F0F870
70F870
71F8F0
79DCE0
79DCE0
3BDCE0
3B9DE0
3B9EE0
3F8FC0
1F8FC0
1F0FC0
1F07C0
1F0780
1E0780
0E0380
ENDCHAR

STARTCHAR X
ENCODING 88
SWIDTH 680 0
DWIDTH 17 0
BBX 16 18 1 0
BITMAP
F01E
783C
783C
3C78
1EF0
1EF0
0FE0
07C0
0380
07C0
0FE0
0FE0
1EF0
3C78
3C78
783C
F01E
F01F
ENDCHAR

STARTCHAR Y
ENCODING 89
SWIDTH 620 0
DWIDTH 16 0
BBX 13 18 1 0
BITMAP
E038
F078
7070
78F0
38E0
3DE0
1FC0
1FC0
0F80
0F80
0700
0700
0700
0700
0700
0700
0700
0700
ENDCHAR

STARTCHAR Z
ENCODING 90
SWIDTH 500 0
DWIDTH 13 0
BBX 11 18 1 0
BITMAP
FFE0
FFC0
FFC0
0380
0780
0780
0700
0F00
0E00
1E00
1C00
3C00
3C00
3800
7800
7FE0
FFE0
FFE0
ENDCHAR

STARTCHAR bracketleft
ENCODING 91
SWIDTH 320 0
DWIDTH 8 0
BBX 5 23 2 -5
BITMAP
F8
F8
F8
E0
E0
E0
E0
E0
E0
E0
E0
E0
E0
E0
E0
E0
E0
E0
E0
E0
F8
F8
F8
ENDCHAR

STARTCHAR backslash
ENCODING 92
SWIDTH 640 0
DWIDTH 16 0
BBX 10 22 3 -3
BITMAP
C000
E000
6000
6000
7000
3000
3800
1800
1800
1C00
0C00
0C00
0E00
0600
0700
0300
0300
0380
0180
0180
01C0
00C0
ENDCHAR

STARTCHAR bracketright
ENCODING 93
SWIDTH 320 0
DWIDTH 8 0
BBX 5 23 1 -5
BITMAP
F8
F8
F8
38
38
38
38
38
38
38
38
38
38
38
38
38
38
38
38
38
F8
F8
F8
ENDCHAR

STARTCHAR asciicircum
ENCODING 94
SWIDTH 600 0
DWIDTH 15 0
BBX 13 14 1 4
BITMAP
0700
0700
0F80
0F80
0F80
1DC0
1DC0
3CC0
38E0
38E0
7070
7070
7070
E038
ENDCHAR

STARTCHAR underscore
ENCODING 95
SWIDTH 500 0
DWIDTH 13 0
BBX 13 1 0 -3
BITMAP
FFF8
ENDCHAR

STARTCHAR quoteleft
ENCODING 96
SWIDTH 280 0
DWIDTH 7 0
BBX 3 7 2 11
BITMAP
40
60
C0
C0
E0
E0
E0
ENDCHAR

STARTCHAR a
ENCODING 97
SWIDTH 660 0
DWIDTH 16 0
BBX 14 14 1 0
BITMAP
0F9C
3FDC
7FFC
787C
F03C
F01C
E01C
E01C
F01C
F03C
787C
7FFC
3FDC
0F9C
ENDCHAR

STARTCHAR b
ENCODING 98
SWIDTH 660 0
DWIDTH 16 0
BBX 13 18 2 0
BITMAP
E000
E000
E000
E000
E780
EFE0
FFF0
F8F0
F078
E038
E038
E038
E038
F078
F8F0
FFF0
EFE0
E780
ENDCHAR

STARTCHAR c
ENCODING 99
SWIDTH 640 0
DWIDTH 16 0
BBX 13 14 1 0
BITMAP
0FC0
1FF0
7FF8
7878
F000
E000
E000
E000
E000
F010
7870
3FF8
1FF0
0FC0
ENDCHAR

STARTCHAR d
ENCODING 100
SWIDTH 660 0
DWIDTH 16 0
BBX 13 18 1 0
BITMAP
0038
0038
0038
0038
0F38
3FD8
7FF8
78F8
F078
E038
E038
E038
E038
F078
78F8
7FF8
3FD8
0F38
ENDCHAR

STARTCHAR e
ENCODING 101
SWIDTH 640 0
DWIDTH 16 0
BBX 14 14 1 0
BITMAP
0FC0
3FF0
7FF8
7878
E01C
FFFC
FFFC
FFFC
E000
F000
7870
7FF8
1FF0
0FC0
ENDCHAR

STARTCHAR f
ENCODING 102
SWIDTH 280 0
DWIDTH 7 0
BBX 6 19 1 0
BITMAP
3C
7C
7C
70
70
FC
FC
FC
70
70
70
70
70
70
70
70
70
70
70
ENDCHAR

STARTCHAR g
ENCODING 103
SWIDTH 660 0
DWIDTH 16 0
BBX 14 19 1 -5
BITMAP
0F9C
3FDC
7FFC
787C
F03C
F01C
E01C
E01C
F01C
F03C
787C
7FFC
3FDC
0F9C
003C
F07C
7FF8
3FF0
0FC0
ENDCHAR

STARTCHAR h
ENCODING 104
SWIDTH 600 0
DWIDTH 15 0
BBX 11 18 2 0
BITMAP
E000
E000
E000
E000
E700
EFC0
FFE0
F1E0
F0E0
E0E0
E0E0
E0E0
E0E0
E0E0
E0E0
E0E0
E0E0
E0E0
ENDCHAR

STARTCHAR i
ENCODING 105
SWIDTH 240 0
DWIDTH 6 0
BBX 4 19 1 0
BITMAP
F0
F0
F0
70
00
70
70
70
70
70
70
70
70
70
70
70
70
70
70
ENDCHAR

STARTCHAR j
ENCODING 106
SWIDTH 260 0
DWIDTH 7 0
BBX 6 24 -1 -5
BITMAP
3C
3C
3C
1C
00
1C
1C
1C
1C
1C
1C
1C
1C
1C
1C
1C
1C
1C
1C
1C
1C
FC
F8
70
ENDCHAR

STARTCHAR k
ENCODING 107
SWIDTH 580 0
DWIDTH 15 0
BBX 13 18 2 0
BITMAP
E000
E000
E000
E000
E0F0
E1E0
E3C0
E780
EF80
FF00
FE00
EE00
EF00
E780
E3C0
E1E0
E0F0
E078
ENDCHAR

STARTCHAR l
ENCODING 108
SWIDTH 240 0
DWIDTH 6 0
BBX 3 18 2 0
BITMAP
E0
E0
E0
E0
E0
E0
E0
E0
E0
E0
E0
E0
E0
E0
E0
E0
E0
E0
ENDCHAR

STARTCHAR m
ENCODING 109
SWIDTH 940 0
DWIDTH 23 0
BBX 20 14 2 0
BITMAP
E7C3C0
EFEFE0
FFFFF0
F8F8F0
F0F870
E07070
E07070
E07070
E07070
E07070
E07070
E07070
E07070
E07070
ENDCHAR

STARTCHAR n
ENCODING 110
SWIDTH 600 0
DWIDTH 15 0
BBX 11 14 2 0
BITMAP
E780
EFC0
FFE0
F1E0
F0E0
E0E0
E0E0
E0E0
E0E0
E0E0
E0E0
E0E0
E0E0
E0E0
ENDCHAR

STARTCHAR o
ENCODING 111
SWIDTH 640 0
DWIDTH 16 0
BBX 14 14 1 0
BITMAP
0FC0
3FF0
7FF8
7878
F03C
F01C
E01C
E01C
F03C
F03C
7878
7FF8
1FF0
0FC0
ENDCHAR

STARTCHAR p
ENCODING 112
SWIDTH 660 0
DWIDTH 16 0
BBX 13 19 2 -5
BITMAP
E780
EFE0
FFF0
F8F0
F078
E038
E038
E038
E038
F078
F8F0
FFF0
EFE0
E780
E000
E000
E000
E000
E000
ENDCHAR

STARTCHAR q
ENCODING 113
SWIDTH 660 0
DWIDTH 16 0
BBX 13 19 1 -5
BITMAP
1F38
3FD8
7FF8
78F8
F078
E038
E038
E038
E038
F078
78F8
7FF8
3FD8
0F38
0038
0038
0038
0038
0038
ENDCHAR

STARTCHAR r
ENCODING 114
SWIDTH 320 0
DWIDTH 8 0
BBX 7 14 1 0
BITMAP
EE
EE
FC
F0
E0
E0
E0
E0
E0
E0
E0
E0
E0
E0
ENDCHAR

STARTCHAR s
ENCODING 115
SWIDTH 440 0
DWIDTH 11 0
BBX 10 14 0 0
BITMAP
1F00
3F80
7FC0
7180
7800
7E00
3F00
0F80
03C0
21C0
31C0
FFC0
7F80
1F00
ENDCHAR

STARTCHAR t
ENCODING 116
SWIDTH 300 0
DWIDTH 8 0
BBX 7 19 0 0
BITMAP
38
38
38
38
38
FE
FE
FE
38
38
38
38
38
38
38
38
38
38
38
ENDCHAR

STARTCHAR u
ENCODING 117
SWIDTH 600 0
DWIDTH 15 0
BBX 11 14 2 0
BITMAP
E0E0
E0E0
E0E0
E0E0
E0E0
E0E0
E0E0
E0E0
E0E0
E0E0
F1E0
7FC0
3FC0
1F00
ENDCHAR

STARTCHAR v
ENCODING 118
SWIDTH 560 0
DWIDTH 14 0
BBX 14 14 0 0
BITMAP
F03C
7038
7878
3870
3870
3CF0
1CE0
1EE0
0FC0
0FC0
0780
0780
0780
0300
ENDCHAR

STARTCHAR w
ENCODING 119
SWIDTH 800 0
DWIDTH 20 0
BBX 20 14 0 0
BITMAP
F060F0
7070E0
70F0E0
78F1E0
39F9C0
39F9C0
3DDBC0
1D9D80
1F9F80
0F9F00
0F0F00
0F0F00
070E00
060600
ENDCHAR

STARTCHAR x
ENCODING 120
SWIDTH 560 0
DWIDTH 14 0
BBX 14 14 0 0
BITMAP
7878
7878
3CF0
1EE0
0FC0
0FC0
0780
0FC0
0FC0
1EE0
3CF0
3870
7878
F03C
ENDCHAR

STARTCHAR y
ENCODING 121
SWIDTH 580 0
DWIDTH 15 0
BBX 14 19 0 -5
BITMAP
F01C
703C
7838
3878
3870
3CF0
1CF0
1EE0
0EE0
0FC0
0FC0
0780
0780
0700
0F00
0E00
0E00
1E00
1C00
ENDCHAR

STARTCHAR z
ENCODING 122
SWIDTH 460 0
DWIDTH 11 0
BBX 11 14 0 0
BITMAP
7FE0
7FE0
7FC0
0380
0780
0700
0F00
0E00
1E00
1C00
3800
7FE0
7FE0
FFE0
ENDCHAR

STARTCHAR braceleft
ENCODING 123
SWIDTH 340 0
DWIDTH 9 0
BBX 9 24 0 -6
BITMAP
0780
0F80
1F80
1C00
1C00
1C00
1C00
1C00
1C00
3C00
F800
F000
F000
F800
3C00
1C00
1C00
1C00
1C00
1C00
1C00
1F80
0F80
0780
ENDCHAR

STARTCHAR bar
ENCODING 124
SWIDTH 600 0
DWIDTH 15 0
BBX 2 23 6 -5
BITMAP
C0
C0
C0
C0
C0
C0
C0
C0
C0
C0
C0
C0
C0
C0
C0
C0
C0
C0
C0
C0
C0
C0
C0
ENDCHAR

STARTCHAR braceright
ENCODING 125
SWIDTH 340 0
DWIDTH 9 0
BBX 8 24 0 -6
BITMAP
F0
F8
F8
3C
3C
1C
1C
1C
1C
1C
1F
07
0F
1F
1C
1C
1C
1C
1C
3C
3C
F8
F8
F0
ENDCHAR

STARTCHAR asciitilde
ENCODING 126
SWIDTH 600 0
DWIDTH 15 0
BBX 13 5 1 6
BITMAP
7C08
FF98
FFF8
C7F8
81F0
ENDCHAR

STARTCHAR space
ENCODING 160
SWIDTH 280 0
DWIDTH 9 0
BBX 0 0 0 0
BITMAP
ENDCHAR

STARTCHAR exclamdown
ENCODING 161
SWIDTH 280 0
DWIDTH 7 0
BBX 4 19 1 -5
BITMAP
70
F0
F0
60
00
70
70
70
70
70
70
70
70
70
70
70
70
70
70
ENDCHAR

STARTCHAR cent
ENCODING 162
SWIDTH 560 0
DWIDTH 14 0
BBX 12 20 1 -3
BITMAP
0040
00E0
00C0
0FC0
3FE0
7FF0
7BE0
F300
E700
E600
EE00
EC00
FC00
78C0
7FE0
3FE0
3F80
7000
6000
2000
ENDCHAR

STARTCHAR sterling
ENCODING 163
SWIDTH 560 0
DWIDTH 14 0
BBX 13 18 1 0
BITMAP
0F80
3FC0
3FE0
78F0
78F0
7800
3800
FFC0
FFC0
FFC0
1E00
1E00
1E00
1C00
3C78
FFF0
7FF0
7FE0
ENDCHAR

STARTCHAR currency
ENCODING 164
SWIDTH 600 0
DWIDTH 15 0
BBX 12 12 2 3
BITMAP
DFB0
FFF0
70E0
E070
E070
C030
C030
E070
E070
71E0
FFF0
DFB0
ENDCHAR

STARTCHAR yen
ENCODING 165
SWIDTH 560 0
DWIDTH 14 0
BBX 13 18 0 0
BITMAP
F078
7070
78F0
38E0
3DE0
1DC0
1FC0
0F80
7FF0
7FF0
0700
0700
7FF0
7FF0
0700
0700
0700
0700
ENDCHAR

STARTCHAR brokenbar
ENCODING 166
SWIDTH 600 0
DWIDTH 15 0
BBX 2 23 7 -5
BITMAP
C0
C0
C0
C0
C0
C0
C0
C0
00
00
00
00
00
00
00
C0
C0
C0
C0
C0
C0
C0
C0
ENDCHAR

STARTCHAR section
ENCODING 167
SWIDTH 560 0
DWIDTH 14 0
BBX 12 24 1 -5
BITMAP
1F80
3FC0
7FE0
79E0
70E0
7800
3E00
1F80
7FC0
F7E0
E1F0
E0F0
F070
7C70
7EE0
1F80
0FC0
07E0
01E0
70E0
79E0
7FE0
3FC0
0F80
ENDCHAR

STARTCHAR dieresis
ENCODING 168
SWIDTH 500 0
DWIDTH 13 0
BBX 9 4 2 15
BITMAP
6300
F780
F780
6300
ENDCHAR

STARTCHAR copyright
ENCODING 169
SWIDTH 740 0
DWIDTH 18 0
BBX 18 18 0 0
BITMAP
03F000
0FFC00
180E00
31E300
63F180
661980
CC1CC0
CC00C0
CC00C0
CC00C0
CE1CC0
4619C0
63F980
71E380
380700
1E1E00
0FFC00
03F000
ENDCHAR

STARTCHAR ordfeminine
ENCODING 170
SWIDTH 360 0
DWIDTH 9 0
BBX 7 9 1 9
BITMAP
76
FE
EE
C6
C6
C6
EE
FE
76
ENDCHAR

STARTCHAR guillemotleft
ENCODING 171
SWIDTH 460 0
DWIDTH 11 0
BBX 11 14 0 0
BITMAP
3CE0
38E0
39C0
79C0
71C0
7380
E380
F380
7380
71C0
79C0
39C0
38E0
3CE0
ENDCHAR

STARTCHAR logicalnot
ENCODING 172
SWIDTH 600 0
DWIDTH 15 0
BBX 12 8 2 5
BITMAP
FFF0
FFF0
FFF0
0070
0070
0070
0070
0070
ENDCHAR

STARTCHAR hyphen
ENCODING 173
SWIDTH 420 0
DWIDTH 10 0
BBX 6 3 2 5
BITMAP
FC
FC
FC
ENDCHAR

STARTCHAR registered
ENCODING 174
SWIDTH 740 0
DWIDTH 18 0
BBX 18 18 0 0
BITMAP
03F000
0FFC00
1C0E00
300300
67F180
67F980
C618C0
C618C0
C7F0C0
C7F8C0
C638C0
4618C0
661980
761B80
380700
1C1E00
0FFC00
03F000
ENDCHAR

STARTCHAR macron
ENCODING 175
SWIDTH 420 0
DWIDTH 10 0
BBX 7 3 2 15
BITMAP
FE
FE
FE
ENDCHAR

STARTCHAR degree
ENCODING 176
SWIDTH 400 0
DWIDTH 10 0
BBX 8 8 1 10
BITMAP
3C
66
C3
81
81
C3
66
3C
ENDCHAR

STARTCHAR plusminus
ENCODING 177
SWIDTH 600 0
DWIDTH 15 0
BBX 13 18 1 0
BITMAP
0700
0700
0700
0700
0700
FFF8
FFF8
FFF8
0700
0700
0700
0700
0000
0000
0000
FFF8
FFF8
FFF8
ENDCHAR

STARTCHAR twosuperior
ENCODING 178
SWIDTH 336 0
DWIDTH 8 0
BBX 7 10 1 8
BITMAP
3C
7E
E6
C6
0E
1C
38
70
FE
FE
ENDCHAR

STARTCHAR threesuperior
ENCODING 179
SWIDTH 336 0
DWIDTH 8 0
BBX 8 10 0 8
BITMAP
3C
7E
E6
06
1C
1E
03
67
7F
3C
ENDCHAR

STARTCHAR acute
ENCODING 180
SWIDTH 420 0
DWIDTH 10 0
BBX 7 5 3 16
BITMAP
1E
3C
38
70
E0
ENDCHAR

STARTCHAR mu
ENCODING 181
SWIDTH 576 0
DWIDTH 14 0
BBX 12 18 1 -4
BITMAP
E070
E070
E070
E070
E070
E070
E070
E070
E070
F0F0
F0F0
FFF0
EF70
E770
E000
E000
E000
E000
ENDCHAR

STARTCHAR paragraph
ENCODING 182
SWIDTH 600 0
DWIDTH 15 0
BBX 11 23 2 -5
BITMAP
3FE0
7EC0
7EC0
7EC0
FEC0
FEC0
7EC0
7EC0
3EC0
06C0
06C0
06C0
06C0
06C0
06C0
06C0
06C0
06C0
06C0
06C0
06C0
06C0
06C0
ENDCHAR

STARTCHAR periodcentered
ENCODING 183
SWIDTH 280 0
DWIDTH 7 0
BBX 4 4 1 7
BITMAP
60
F0
F0
60
ENDCHAR

STARTCHAR cedilla
ENCODING 184
SWIDTH 340 0
DWIDTH 9 0
BBX 6 5 1 -5
BITMAP
38
2C
0C
FC
78
ENDCHAR

STARTCHAR onesuperior
ENCODING 185
SWIDTH 336 0
DWIDTH 8 0
BBX 4 9 1 9
BITMAP
70
F0
30
30
30
30
30
30
30
ENDCHAR

STARTCHAR ordmasculine
ENCODING 186
SWIDTH 360 0
DWIDTH 9 0
BBX 7 8 1 10
BITMAP
78
7E
EE
C6
C6
EE
7C
38
ENDCHAR

STARTCHAR guillemotright
ENCODING 187
SWIDTH 460 0
DWIDTH 11 0
BBX 11 14 0 0
BITMAP
F380
7380
71C0
79C0
39C0
38E0
1CE0
38E0
38E0
39C0
71C0
71C0
7380
F380
ENDCHAR

STARTCHAR onequarter
ENCODING 188
SWIDTH 840 0
DWIDTH 21 0
BBX 19 18 2 0
BITMAP
701C00
F01800
301800
303000
303000
306000
306000
30E000
30C0C0
00C1C0
0183C0
018740
038EC0
0308C0
031FE0
061FE0
0600C0
0C00C0
ENDCHAR

STARTCHAR onehalf
ENCODING 189
SWIDTH 840 0
DWIDTH 21 0
BBX 19 18 1 0
BITMAP
701C00
F01800
303800
303000
307000
306000
306000
30C000
30C000
01C7C0
018FE0
018C60
030060
0300C0
0603C0
060700
0E0FE0
0C1FE0
ENDCHAR

STARTCHAR threequarters
ENCODING 190
SWIDTH 840 0
DWIDTH 21 0
BBX 20 18 0 0
BITMAP
3C0700
7E0600
E60C00
1C0C00
1E0C00
031800
631800
7F3000
3C3060
0030E0
0061E0
0063A0
00C760
00C460
00CFF0
018FF0
018060
030060
ENDCHAR

STARTCHAR questiondown
ENCODING 191
SWIDTH 560 0
DWIDTH 14 0
BBX 12 19 1 -5
BITMAP
0F00
0F00
0F00
0F00
0000
0F00
0F00
0F00
1E00
3E00
7C00
7800
F000
E000
E0F0
F1E0
7FE0
7FC0
1F00
ENDCHAR

STARTCHAR Agrave
ENCODING 192
SWIDTH 740 0
DWIDTH 18 0
BBX 17 24 1 0
BITMAP
0F0000
078000
038000
01C000
00E000
000000
03C000
03E000
03E000
07E000
07F000
0F7000
0F7800
0E7800
1E3800
1C3C00
3C1C00
3FFC00
3FFE00
7FFE00
700F00
F00F00
F00700
E00780
ENDCHAR

STARTCHAR Aacute
ENCODING 193
SWIDTH 740 0
DWIDTH 18 0
BBX 17 24 1 0
BITMAP
00F800
00E000
01C000
01C000
038000
000000
03C000
03E000
03E000
07E000
07F000
0F7000
0F7800
0E7800
1E3800
1C3C00
3C1C00
3FFC00
3FFE00
7FFE00
700F00
F00F00
F00700
E00780
ENDCHAR

STARTCHAR Acircumflex
ENCODING 194
SWIDTH 740 0
DWIDTH 18 0
BBX 17 23 1 0
BITMAP
01C000
03E000
077000
1E7800
000000
03C000
03E000
03E000
07E000
07F000
0F7000
0F7800
0E7800
1E3800
1C3C00
3C1C00
3FFC00
3FFE00
7FFE00
700F00
F00F00
F00700
E00780
ENDCHAR

STARTCHAR Atilde
ENCODING 195
SWIDTH 740 0
DWIDTH 18 0
BBX 17 23 1 0
BITMAP
070000
1FF800
0FF800
087000
000000
03C000
03E000
03E000
07E000
07F000
0F7000
0F7800
0E7800
1E3800
1C3C00
3C1C00
3FFC00
3FFE00
7FFE00
700F00
F00F00
F00700
E00780
ENDCHAR

STARTCHAR Adieresis
ENCODING 196
SWIDTH 740 0
DWIDTH 18 0
BBX 17 23 1 0
BITMAP
063000
0F7800
0F7800
063000
000000
01C000
03E000
03E000
03E000
07F000
077000
0F7800
0F3800
0E3800
1E3C00
1C1C00
3FFE00
3FFE00
3FFE00
780F00
780700
700700
F00780
ENDCHAR

STARTCHAR Aring
ENCODING 197
SWIDTH 740 0
DWIDTH 18 0
BBX 18 25 0 0
BITMAP
00C000
01E000
033000
033000
01E000
00C000
000000
01E000
01E000
03F000
03F000
07F800
07B800
073800
0F3C00
0F1C00
1E1E00
1E0E00
1FFE00
3FFF00
3FFF00
780780
780780
700380
F003C0
ENDCHAR

STARTCHAR AE
ENCODING 198
SWIDTH 900 0
DWIDTH 22 0
BBX 21 18 1 0
BITMAP
00FFF8
00FFF8
01FFF8
01EC00
03DC00
03DC00
039C00
079FF8
071FF8
0F1FF8
0E1C00
1FFC00
1FFC00
3FFC00
381C00
781FF8
701FF8
F01FF8
ENDCHAR

STARTCHAR Ccedilla
ENCODING 199
SWIDTH 780 0
DWIDTH 20 0
BBX 17 22 1 -4
BITMAP
03F800
0FFE00
1FFF80
3E0F80
780300
F00100
F00000
E00000
E00000
E00000
E00000
F00000
F00100
780300
3E0F80
1FFF80
0FFE00
03D800
01E000
006000
07E000
03C000
ENDCHAR

STARTCHAR Egrave
ENCODING 200
SWIDTH 520 0
DWIDTH 13 0
BBX 10 24 2 0
BITMAP
F800
3800
1C00
0E00
0000
0000
FFC0
FFC0
FFC0
E000
E000
E000
E000
FFC0
FFC0
FFC0
E000
E000
E000
E000
E000
FFC0
FFC0
FFC0
ENDCHAR

STARTCHAR Eacute
ENCODING 201
SWIDTH 520 0
DWIDTH 13 0
BBX 10 24 2 0
BITMAP
0780
0E00
0E00
3C00
0000
0000
FFC0
FFC0
FFC0
E000
E000
E000
E000
FFC0
FFC0
FFC0
E000
E000
E000
E000
E000
FFC0
FFC0
FFC0
ENDCHAR

STARTCHAR Ecircumflex
ENCODING 202
SWIDTH 520 0
DWIDTH 13 0
BBX 10 23 2 0
BITMAP
1E00
3F00
F7C0
0000
0000
FFC0
FFC0
FFC0
E000
E000
E000
E000
FFC0
FFC0
FFC0
E000
E000
E000
E000
E000
FFC0
FFC0
FFC0
ENDCHAR

STARTCHAR Edieresis
ENCODING 203
SWIDTH 520 0
DWIDTH 13 0
BBX 9 23 2 0
BITMAP
6300
F780
F780
6300
0000
FF80
FF80
FF80
E000
E000
E000
E000
FF80
FF80
FF80
E000
E000
E000
E000
E000
FF80
FF80
FF80
ENDCHAR

STARTCHAR Igrave
ENCODING 204
SWIDTH 280 0
DWIDTH 7 0
BBX 7 24 -1 0
BITMAP
F0
78
38
1C
0E
00
1C
1C
1C
1C
1C
1C
1C
1C
1C
1C
1C
1C
1C
1C
1C
1C
1C
1C
ENDCHAR

STARTCHAR Iacute
ENCODING 205
SWIDTH 280 0
DWIDTH 7 0
BBX 7 24 1 0
BITMAP
1E
3C
38
70
E0
00
70
70
70
70
70
70
70
70
70
70
70
70
70
70
70
70
70
70
ENDCHAR

STARTCHAR Icircumflex
ENCODING 206
SWIDTH 280 0
DWIDTH 7 0
BBX 10 23 -1 0
BITMAP
1C00
3E00
7700
E3C0
0000
1C00
1C00
1C00
1C00
1C00
1C00
1C00
1C00
1C00
1C00
1C00
1C00
1C00
1C00
1C00
1C00
1C00
1C00
ENDCHAR

STARTCHAR Idieresis
ENCODING 207
SWIDTH 280 0
DWIDTH 7 0
BBX 9 23 -1 0
BITMAP
6300
F780
F780
6300
0000
1C00
1C00
1C00
1C00
1C00
1C00
1C00
1C00
1C00
1C00
1C00
1C00
1C00
1C00
1C00
1C00
1C00
1C00
ENDCHAR

STARTCHAR Gbreve
ENCODING 208
SWIDTH 840 0
DWIDTH 21 0
BBX 19 22 1 0
BITMAP
0F1E00
07FC00
03F000
000000
03F800
0FFF00
1FFFC0
3E0F80
780300
700000
F00000
E00000
E00000
E03FE0
F03FE0
F03FE0
7801C0
7C03C0
3E0F80
1FFF00
0FFE00
03F800
ENDCHAR

STARTCHAR Ntilde
ENCODING 209
SWIDTH 740 0
DWIDTH 18 0
BBX 14 23 2 0
BITMAP
1E00
3FE0
1FF0
11E0
0000
E01C
F01C
F81C
F81C
FC1C
FE1C
EE1C
EF1C
E79C
E79C
E3DC
E1EC
E1FC
E0FC
E07C
E07C
E03C
E01C
ENDCHAR

STARTCHAR Ograve
ENCODING 210
SWIDTH 840 0
DWIDTH 21 0
BBX 19 24 1 0
BITMAP
078000
01C000
01E000
00E000
007000
000000
03F800
0FFE00
1FFF00
3E0F80
7C03C0
7801E0
7001E0
F000E0
F000E0
F000E0
F000E0
7001E0
7801C0
3C03C0
3F0F80
1FFF00
0FFE00
03F800
ENDCHAR

STARTCHAR Oacute
ENCODING 211
SWIDTH 840 0
DWIDTH 21 0
BBX 19 24 1 0
BITMAP
003C00
007800
007000
00E000
01C000
000000
03F800
0FFE00
1FFF00
3E0F80
7C03C0
7801E0
7001E0
F000E0
F000E0
F000E0
F000E0
7001E0
7801C0
3C03C0
3F0F80
1FFF00
0FFE00
03F800
ENDCHAR

STARTCHAR Ocircumflex
ENCODING 212
SWIDTH 840 0
DWIDTH 21 0
BBX 19 23 1 0
BITMAP
00E000
01F000
03D800
079E00
000000
03F800
0FFE00
1FFF00
3E0F80
7C03C0
7801E0
7001E0
F000E0
F000E0
F000E0
F000E0
7001E0
7801C0
3C03C0
3F0F80
1FFF00
0FFE00
03F800
ENDCHAR

STARTCHAR Otilde
ENCODING 213
SWIDTH 840 0
DWIDTH 21 0
BBX 19 23 1 0
BITMAP
038000
07FC00
07FE00
023800
000000
03F800
0FFE00
1FFF00
3E0F80
7C03C0
7801E0
7001E0
F000E0
F000E0
F000E0
F000E0
7001E0
7801C0
3C03C0
3F0F80
1FFF00
0FFE00
03F800
ENDCHAR

STARTCHAR Odieresis
ENCODING 214
SWIDTH 840 0
DWIDTH 21 0
BBX 19 23 1 0
BITMAP
031800
07BC00
07BC00
031800
000000
03F800
0FFE00
1FFF00
3E0F80
7C07C0
7803C0
7001E0
F001E0
F000E0
F000E0
F001E0
7001E0
7803C0
3C07C0
3E0F80
1FFF00
0FFE00
03F800
ENDCHAR

STARTCHAR multiply
ENCODING 215
SWIDTH 600 0
DWIDTH 15 0
BBX 11 12 2 3
BITMAP
4040
E0E0
F1E0
7BC0
3F80
0E00
1F00
3F80
7BC0
F1E0
E0E0
4040
ENDCHAR

STARTCHAR Oslash
ENCODING 216
SWIDTH 840 0
DWIDTH 21 0
BBX 19 20 1 -1
BITMAP
000040
03F8E0
0FFEC0
1FFF80
3E0F80
7C07C0
780DE0
701DE0
F038E0
F070E0
F0E0E0
F1C0E0
7381E0
7F01C0
3E03C0
3F0F80
1FFF00
3FFE00
73F800
200000
ENDCHAR

STARTCHAR Ugrave
ENCODING 217
SWIDTH 640 0
DWIDTH 16 0
BBX 12 24 2 0
BITMAP
7C00
1C00
0E00
0700
0300
0000
E070
E070
E070
E070
E070
E070
E070
E070
E070
E070
E070
E070
E070
F0F0
F9F0
7FE0
3FE0
1F80
ENDCHAR

STARTCHAR Uacute
ENCODING 218
SWIDTH 640 0
DWIDTH 16 0
BBX 12 24 2 0
BITMAP
03E0
0380
0700
0E00
0C00
0000
E070
E070
E070
E070
E070
E070
E070
E070
E070
E070
E070
E070
E070
F0F0
F9F0
7FE0
3FE0
1F80
ENDCHAR

STARTCHAR Ucircumflex
ENCODING 219
SWIDTH 640 0
DWIDTH 16 0
BBX 12 23 2 0
BITMAP
0F00
1F80
3DC0
79E0
0000
E070
E070
E070
E070
E070
E070
E070
E070
E070
E070
E070
E070
E070
F0F0
F9F0
7FE0
3FE0
1F80
ENDCHAR

STARTCHAR Udieresis
ENCODING 220
SWIDTH 640 0
DWIDTH 16 0
BBX 12 23 2 0
BITMAP
30C0
79E0
79E0
30C0
0000
E070
E070
E070
E070
E070
E070
E070
E070
E070
E070
E070
E070
E070
F0F0
F9F0
7FE0
3FE0
1F80
ENDCHAR

STARTCHAR Idotaccent
ENCODING 221
SWIDTH 280 0
DWIDTH 7 0
BBX 4 23 1 0
BITMAP
60
F0
F0
60
00
70
70
70
70
70
70
70
70
70
70
70
70
70
70
70
70
70
70
ENDCHAR

STARTCHAR Scedilla
ENCODING 222
SWIDTH 520 0
DWIDTH 13 0
BBX 11 22 1 -4
BITMAP
1F00
3F80
7FE0
79C0
7080
7800
3C00
3E00
1F00
0F80
03C0
01E0
00E0
60E0
F1E0
7FC0
3FC0
1E00
0700
0300
1F00
1E00
ENDCHAR

STARTCHAR germandbls
ENCODING 223
SWIDTH 600 0
DWIDTH 15 0
BBX 12 19 2 0
BITMAP
1F00
3FC0
7FE0
F1E0
F0E0
E0E0
E1E0
E7C0
E600
E7C0
E1E0
E0F0
E070
E070
E0F0
E4F0
E7F0
E7E0
E780
ENDCHAR

STARTCHAR agrave
ENCODING 224
SWIDTH 660 0
DWIDTH 16 0
BBX 14 21 1 0
BITMAP
3E00
0E00
0700
0380
0180
0000
0000
0F9C
3FDC
7FFC
787C
F03C
F01C
E01C
E01C
F01C
F03C
787C
7FFC
3FDC
0F9C
ENDCHAR

STARTCHAR aacute
ENCODING 225
SWIDTH 660 0
DWIDTH 16 0
BBX 14 21 1 0
BITMAP
01F0
01C0
0380
0700
0600
0000
0000
0F9C
3FDC
7FFC
787C
F03C
F01C
E01C
E01C
F01C
F03C
787C
7FFC
3FDC
0F9C
ENDCHAR

STARTCHAR acircumflex
ENCODING 226
SWIDTH 660 0
DWIDTH 16 0
BBX 14 20 1 0
BITMAP
0700
0FC0
1EE0
3CF0
0000
0000
0F9C
3FDC
7FFC
787C
F03C
F01C
E01C
E01C
F01C
F03C
787C
7FFC
3FDC
0F9C
ENDCHAR

STARTCHAR atilde
ENCODING 227
SWIDTH 660 0
DWIDTH 16 0
BBX 14 19 1 0
BITMAP
1E00
3FF0
3FF0
01E0
0000
0F9C
3FDC
7FFC
787C
F03C
F01C
E01C
E01C
F01C
F03C
787C
7FFC
3FDC
0F9C
ENDCHAR

STARTCHAR adieresis
ENCODING 228
SWIDTH 660 0
DWIDTH 16 0
BBX 13 20 1 0
BITMAP
18C0
3DE0
3DE0
18C0
0000
0000
0F38
3FD8
7FF8
78F8
F078
E038
E038
E038
E038
F078
78F8
7FF8
3FD8
0FB8
ENDCHAR

STARTCHAR aring
ENCODING 229
SWIDTH 660 0
DWIDTH 16 0
BBX 14 22 1 0
BITMAP
0300
0780
0CC0
0CC0
0780
0300
0000
0000
0F9C
3FEC
7FFC
787C
F03C
F01C
E01C
E01C
F01C
F03C
787C
7FFC
3FDC
0F9C
ENDCHAR

STARTCHAR ae
ENCODING 230
SWIDTH 1080 0
DWIDTH 27 0
BBX 25 14 1 0
BITMAP
0F9DF800
3FDFFE00
7FFFFF00
787F0700
F03C0380
E01FFF80
E01FFF80
E01FFF80
F01C0000
F03E0000
787F0E00
7FFFFF00
3FDFFE00
0F9CF800
ENDCHAR

STARTCHAR ccedilla
ENCODING 231
SWIDTH 640 0
DWIDTH 16 0
BBX 13 18 1 -4
BITMAP
0FC0
3FF0
7FF8
7870
F000
E000
E000
E000
E000
F020
7870
7FF8
1FF0
0240
0780
0180
0F80
0F00
ENDCHAR

STARTCHAR egrave
ENCODING 232
SWIDTH 640 0
DWIDTH 16 0
BBX 14 21 1 0
BITMAP
3E00
0E00
0700
0380
0380
0000
0000
0FC0
3FF0
7FF8
7878
E01C
FFFC
FFFC
FFFC
E000
F000
7870
7FF8
1FF0
0FC0
ENDCHAR

STARTCHAR eacute
ENCODING 233
SWIDTH 640 0
DWIDTH 16 0
BBX 14 21 1 0
BITMAP
01F0
01C0
03C0
0380
0700
0000
0000
0FC0
3FF0
7FF8
7878
E01C
FFFC
FFFC
FFFC
E000
F000
7870
7FF8
1FF0
0FC0
ENDCHAR

STARTCHAR ecircumflex
ENCODING 234
SWIDTH 640 0
DWIDTH 16 0
BBX 14 19 1 0
BITMAP
07C0
1EE0
3CF0
0000
0000
0FC0
3FF0
7FF8
7878
E01C
FFFC
FFFC
FFFC
E000
F000
7870
7FF8
1FF0
0FC0
ENDCHAR

STARTCHAR edieresis
ENCODING 235
SWIDTH 640 0
DWIDTH 16 0
BBX 14 20 1 0
BITMAP
1860
1CE0
1CE0
1860
0000
0000
0FC0
1FE0
3FF0
7878
6018
FFFC
FFFC
FFFC
E000
7000
7870
3FF8
1FF0
0FC0
ENDCHAR

STARTCHAR igrave
ENCODING 236
SWIDTH 240 0
DWIDTH 6 0
BBX 7 21 -2 0
BITMAP
F0
78
38
1C
0E
00
00
1C
1C
1C
1C
1C
1C
1C
1C
1C
1C
1C
1C
1C
1C
ENDCHAR

STARTCHAR iacute
ENCODING 237
SWIDTH 240 0
DWIDTH 6 0
BBX 7 21 0 0
BITMAP
1E
3C
38
70
E0
00
00
70
70
70
70
70
70
70
70
70
70
70
70
70
70
ENDCHAR

STARTCHAR icircumflex
ENCODING 238
SWIDTH 240 0
DWIDTH 6 0
BBX 10 20 -2 0
BITMAP
1C00
3E00
7700
E3C0
0000
0000
1C00
1C00
1C00
1C00
1C00
1C00
1C00
1C00
1C00
1C00
1C00
1C00
1C00
1C00
ENDCHAR

STARTCHAR idieresis
ENCODING 239
SWIDTH 240 0
DWIDTH 6 0
BBX 9 20 -2 0
BITMAP
6300
F780
F780
6300
0000
0000
1C00
1C00
1C00
1C00
1C00
1C00
1C00
1C00
1C00
1C00
1C00
1C00
1C00
1C00
ENDCHAR

STARTCHAR gbreve
ENCODING 240
SWIDTH 660 0
DWIDTH 16 0
BBX 14 24 1 -5
BITMAP
38F0
1FE0
0FC0
0000
0000
0F9C
3FDC
7FFC
787C
F03C
F01C
E01C
E01C
F01C
F03C
787C
7FFC
3FDC
0F9C
003C
F07C
7FF8
3FF0
0FC0
ENDCHAR

STARTCHAR ntilde
ENCODING 241
SWIDTH 600 0
DWIDTH 15 0
BBX 11 19 2 0
BITMAP
3800
7FC0
7FC0
0380
0000
E780
EFC0
FFE0
F1E0
F0E0
E0E0
E0E0
E0E0
E0E0
E0E0
E0E0
E0E0
E0E0
E0E0
ENDCHAR

STARTCHAR ograve
ENCODING 242
SWIDTH 640 0
DWIDTH 16 0
BBX 14 21 1 0
BITMAP
3E00
0E00
0700
0380
0180
0000
0000
0FC0
1FF0
7FF8
7878
F03C
F01C
E01C
E01C
F03C
F03C
7878
7FF8
1FF0
0FC0
ENDCHAR

STARTCHAR oacute
ENCODING 243
SWIDTH 640 0
DWIDTH 16 0
BBX 14 21 1 0
BITMAP
01F0
01C0
0380
0700
0600
0000
0000
0FC0
1FF0
7FF8
7878
F03C
F01C
E01C
E01C
F03C
F03C
7878
7FF8
1FF0
0FC0
ENDCHAR

STARTCHAR ocircumflex
ENCODING 244
SWIDTH 640 0
DWIDTH 16 0
BBX 14 20 1 0
BITMAP
0780
0FC0
1EE0
3CF0
0000
0000
0FC0
1FF0
7FF8
7878
F03C
F01C
E01C
E01C
F03C
F03C
7878
7FF8
1FF0
0FC0
ENDCHAR

STARTCHAR otilde
ENCODING 245
SWIDTH 640 0
DWIDTH 16 0
BBX 14 19 1 0
BITMAP
1E00
3FF0
1FF0
0040
0000
0FC0
1FF0
7FF8
7878
F03C
F01C
E01C
E01C
F03C
F03C
7878
7FF8
1FF0
0FC0
ENDCHAR

STARTCHAR odieresis
ENCODING 246
SWIDTH 640 0
DWIDTH 16 0
BBX 13 20 2 0
BITMAP
18C0
3DE0
3DE0
18C0
0000
0000
0F80
3FE0
7FF0
78F0
F078
E038
E038
E038
E038
F078
78F0
7FF0
3FE0
0F80
ENDCHAR

STARTCHAR divide
ENCODING 247
SWIDTH 600 0
DWIDTH 15 0
BBX 12 15 2 1
BITMAP
0F00
0F00
0F00
0F00
0000
0000
FFF0
FFF0
FFF0
0000
0000
0F00
0F00
0F00
0F00
ENDCHAR

STARTCHAR oslash
ENCODING 248
SWIDTH 660 0
DWIDTH 16 0
BBX 14 16 1 -1
BITMAP
0004
0FCC
3FFC
7FF8
7878
F0FC
F1DC
E39C
E71C
F63C
FC3C
7878
3FF8
7FF0
EFC0
4000
ENDCHAR

STARTCHAR ugrave
ENCODING 249
SWIDTH 600 0
DWIDTH 15 0
BBX 11 21 2 0
BITMAP
7800
3C00
1C00
0E00
0700
0000
0000
E0E0
E0E0
E0E0
E0E0
E0E0
E0E0
E0E0
E0E0
E0E0
E0E0
F1E0
7FC0
3F80
1F00
ENDCHAR

STARTCHAR uacute
ENCODING 250
SWIDTH 600 0
DWIDTH 15 0
BBX 11 21 2 0
BITMAP
03C0
0780
0700
0E00
1C00
0000
0000
E0E0
E0E0
E0E0
E0E0
E0E0
E0E0
E0E0
E0E0
E0E0
E0E0
F1E0
7FC0
3F80
1F00
ENDCHAR

STARTCHAR ucircumflex
ENCODING 251
SWIDTH 600 0
DWIDTH 15 0
BBX 11 20 2 0
BITMAP
0E00
1F00
3B80
71C0
0000
0000
E0E0
E0E0
E0E0
E0E0
E0E0
E0E0
E0E0
E0E0
E0E0
E0E0
F1E0
7FC0
3F80
1F00
ENDCHAR

STARTCHAR udieresis
ENCODING 252
SWIDTH 600 0
DWIDTH 15 0
BBX 11 20 2 0
BITMAP
3180
7BC0
7BC0
3180
0000
0000
E0E0
E0E0
E0E0
E0E0
E0E0
E0E0
E0E0
E0E0
E0E0
E0E0
F1E0
7FC0
3F80
1F00
ENDCHAR

STARTCHAR dotlessi
ENCODING 253
SWIDTH 240 0
DWIDTH 6 0
BBX 3 14 2 0
BITMAP
E0
E0
E0
E0
E0
E0
E0
E0
E0
E0
E0
E0
E0
E0
ENDCHAR

STARTCHAR scedilla
ENCODING 254
SWIDTH 440 0
DWIDTH 11 0
BBX 10 18 0 -4
BITMAP
1F00
3F80
7FC0
7180
7800
7E00
3F00
0F80
03C0
21C0
71C0
FFC0
7F80
1C00
0F00
0300
3F00
3E00
ENDCHAR

STARTCHAR ydieresis
ENCODING 255
SWIDTH 580 0
DWIDTH 15 0
BBX 13 25 1 -5
BITMAP
18C0
3DE0
3DE0
18C0
0000
0000
E038
F078
7070
7070
78F0
38E0
39E0
1DC0
1DC0
1F80
0F80
0F00
0700
0F00
0E00
1E00
1C00
1C00
3800
ENDCHAR
ENDFONT
